<svg width="33" height="30" viewBox="0 0 33 30" fill="none" xmlns="http://www.w3.org/2000/svg">
<path d="M3.68104 9.52917L2.69827 7.86838H23.2272L23.5548 9.52917H13.3995L8.37648 29.3309H2.69827L8.37648 9.52917H3.68104Z" fill="#4631F9"/>
<path d="M1.49711 0.330933L0.405151 5.69657H25.9571C27.2883 6.69 27.5008 7.60843 27.3766 9.52917C27.1228 11.0417 26.5882 11.618 25.1927 12.3397H15.4742L14.4915 15.6613L22.8996 29.3309H29.0146L21.9168 17.3221H25.9571C26.503 17.3221 32.1043 13.5701 32.3996 8.25164C32.4352 4.70044 32.389 2.622 29.3422 0.330933H1.49711Z" fill="#4631F9"/>
<path d="M3.68104 9.52917L2.69827 7.86838H23.2272L23.5548 9.52917H13.3995L8.37648 29.3309H2.69827L8.37648 9.52917H3.68104Z" stroke="#4F46E5" stroke-width="0.661932" stroke-linecap="round"/>
<path d="M1.49711 0.330933L0.405151 5.69657H25.9571C27.2883 6.69 27.5008 7.60843 27.3766 9.52917C27.1228 11.0417 26.5882 11.618 25.1927 12.3397H15.4742L14.4915 15.6613L22.8996 29.3309H29.0146L21.9168 17.3221H25.9571C26.503 17.3221 32.1043 13.5701 32.3996 8.25164C32.4352 4.70044 32.389 2.622 29.3422 0.330933H1.49711Z" stroke="#4F46E5" stroke-width="0.661932" stroke-linecap="round"/>
</svg>
